<svg xmlns="http://www.w3.org/2000/svg" viewBox="0 0 100 125" fill="none" x="0px" y="0px"><path fill="currentColor" fill-rule="evenodd" clip-rule="evenodd" d="M18.2001 21.9854C18.2001 20.3285 19.5432 18.9854 21.2001 18.9854H28.0777C29.4325 18.9854 30.6192 19.8934 30.9733 21.2011L33.6329 31.0212H78.7999C79.7022 31.0212 80.5565 31.4273 81.1262 32.1269C81.6959 32.8266 81.9205 33.7455 81.7377 34.629L76.5795 59.5604C76.3193 60.8178 75.2879 61.7702 74.0138 61.9295L39.6259 66.228C38.1424 66.4134 36.7489 65.4784 36.3581 64.0354L25.7821 24.9854H21.2001C19.5432 24.9854 18.2001 23.6422 18.2001 21.9854ZM35.2579 37.0212L41.468 59.951L71.139 56.2421L75.1157 37.0212H35.2579ZM45.5 73.0073C44.6716 73.0073 44 73.6789 44 74.5073C44 75.3357 44.6716 76.0073 45.5 76.0073C46.3284 76.0073 47 75.3357 47 74.5073C47 73.6789 46.3284 73.0073 45.5 73.0073ZM38 74.5073C38 70.3652 41.3579 67.0073 45.5 67.0073C49.6421 67.0073 53 70.3652 53 74.5073C53 78.6495 49.6421 82.0073 45.5 82.0073C41.3579 82.0073 38 78.6495 38 74.5073ZM69.4999 73.0073C68.6715 73.0073 67.9999 73.6789 67.9999 74.5073C67.9999 75.3357 68.6715 76.0073 69.4999 76.0073C70.3284 76.0073 70.9999 75.3357 70.9999 74.5073C70.9999 73.6789 70.3284 73.0073 69.4999 73.0073ZM62 74.5073C62 70.3652 65.3578 67.0073 69.4999 67.0073C73.6421 67.0073 76.9999 70.3652 76.9999 74.5073C76.9999 78.6495 73.6421 82.0073 69.4999 82.0073C65.3578 82.0073 62 78.6495 62 74.5073Z" fill="black"/></svg>