<?xml version="1.0" encoding="UTF-8" standalone="no"?>
<svg
   version="1.1"
   x="0px"
   y="0px"
   viewBox="0 0 100 125"
   style="enable-background:new 0 0 100 100;"
   xml:space="preserve"
   id="svg926"
   sodipodi:docname="food.svg"
   inkscape:version="1.2.1 (9c6d41e410, 2022-07-14)"
   xmlns:inkscape="http://www.inkscape.org/namespaces/inkscape"
   xmlns:sodipodi="http://sodipodi.sourceforge.net/DTD/sodipodi-0.dtd"
   xmlns="http://www.w3.org/2000/svg"
   xmlns:svg="http://www.w3.org/2000/svg"><defs
     id="defs930" /><sodipodi:namedview
     id="namedview928"
     pagecolor="#ffffff"
     bordercolor="#999999"
     borderopacity="1"
     inkscape:showpageshadow="0"
     inkscape:pageopacity="0"
     inkscape:pagecheckerboard="0"
     inkscape:deskcolor="#d1d1d1"
     showgrid="false"
     inkscape:zoom="5.8095893"
     inkscape:cx="70.056587"
     inkscape:cy="48.024049"
     inkscape:window-width="2560"
     inkscape:window-height="1369"
     inkscape:window-x="1432"
     inkscape:window-y="688"
     inkscape:window-maximized="1"
     inkscape:current-layer="g922" /><g
     id="g924"><g
       id="g922"><path
         d="M85,34.9c0-0.1,0-0.1,0-0.2c0-0.1,0-0.1-0.1-0.2c0,0,0,0,0-0.1c0,0-0.1-0.1-0.1-0.1c0-0.1-0.1-0.1-0.1-0.2    c0,0-0.1-0.1-0.2-0.1c-0.1,0-0.1-0.1-0.2-0.1c-0.1,0-0.1,0-0.2,0c0,0-0.1,0-0.1,0c0,0,0,0-0.1,0c-0.1,0-0.1,0-0.2,0    c-0.1,0-0.1,0-0.2,0.1c0,0,0,0-0.1,0L82,35v-7c0-2.5-1.3-4.7-3.3-5.9l3.2-5.6c0.2-0.3,0.2-0.7,0-1C81.7,15.2,81.4,15,81,15h-4    c-0.3,0-0.5,0.1-0.7,0.3L75,16.6l-1.3-1.3C73.5,15.1,73.3,15,73,15h-4c-0.4,0-0.7,0.2-0.9,0.5c-0.2,0.3-0.2,0.7,0,1l3.2,5.6    c-1.7,1.1-3,2.9-3.2,5c-0.6-0.6-1.3-1.1-2.2-1.5c-1.8-0.8-2.9-2.5-2.9-4.4V20c0.6,0,1-0.4,1-1v-8c0-0.6-0.4-1-1-1H49    c-0.6,0-1,0.4-1,1v8c0,0.6,0.4,1,1,1v1.2c0,1.9-1.1,3.6-2.9,4.4c-0.8,0.3-1.5,0.8-2.1,1.4V17c0-7.2-5.8-13-13-13S18,9.8,18,17v18    l-1.5-0.9c0,0,0,0-0.1,0c-0.1,0-0.1,0-0.2-0.1c-0.1,0-0.1,0-0.2,0c0,0,0,0-0.1,0c0,0-0.1,0-0.1,0c-0.1,0-0.1,0-0.2,0    c-0.1,0-0.1,0-0.2,0.1c-0.1,0-0.1,0.1-0.2,0.1c-0.1,0-0.1,0.1-0.1,0.2c0,0-0.1,0.1-0.1,0.1c0,0,0,0,0,0.1c0,0.1,0,0.1-0.1,0.2    c0,0.1,0,0.1,0,0.2c0,0,0,0,0,0.1v54c0,3.9,3.1,7,7,7h56c3.9,0,7-3.1,7-7L85,34.9C85,35,85,35,85,34.9z M73,21l-2.3-4h1.9l1.7,1.7    c0.4,0.4,1,0.4,1.4,0l1.7-1.7h1.9L77,21H73z M70,28c0-2.8,2.2-5,5-5s5,2.2,5,5v8c0,0.1,0,0.1,0,0.2l-2.8,1.7l-6.3-3.7    C70.6,34,70.3,34,70,34.1V32v-0.2V28z M50,12h12v6H50V12z M46.9,27.4c2.5-1.1,4.1-3.5,4.1-6.2V20h10v1.2c0,2.7,1.6,5.2,4.1,6.2    c1.8,0.8,2.9,2.5,2.9,4.4V32v3c0,0.1,0,0.1,0,0.2l-4.5,2.6l-6.3-3.7c-0.3-0.2-0.7-0.2-1,0L50,37.8l-6-3.5v-2.5    C44,29.9,45.1,28.2,46.9,27.4z M20,36V17c0-6.1,4.9-11,11-11s11,4.9,11,11v14.8v2.7l-5.6,3.3l-6.3-3.7c-0.3-0.2-0.7-0.2-1,0    l-6.3,3.7L20,36.2C20,36.1,20,36.1,20,36z M78,94H22c-2.8,0-5-2.2-5-5V36.7l5.3,3.1c0.3,0.2,0.7,0.2,1,0l6.3-3.7l6.3,3.7    c0.3,0.2,0.7,0.2,1,0l6.3-3.7l6.3,3.7C49.6,40,49.8,40,50,40c0.2,0,0.4,0,0.5-0.1l6.3-3.7l6.3,3.7c0.3,0.2,0.7,0.2,1,0l6.3-3.7    l6.3,3.7c0.3,0.2,0.7,0.2,1,0l5.3-3.1V89C83,91.8,80.8,94,78,94z"
         id="path914" /><path
         d="M31,23c1.5,0,9-0.1,9-3s-7.5-3-9-3s-9,0.1-9,3S29.5,23,31,23z M31,19c3.5,0,5.9,0.6,6.7,1c-0.9,0.4-3.2,1-6.7,1    s-5.9-0.6-6.7-1C25.1,19.6,27.5,19,31,19z"
         id="path916" /><path
         d="M40,30c0-2.9-7.5-3-9-3s-9,0.1-9,3s7.5,3,9,3S40,32.9,40,30z M31,29c3.5,0,5.9,0.6,6.7,1c-0.9,0.4-3.2,1-6.7,1    s-5.9-0.6-6.7-1C25.1,29.6,27.5,29,31,29z"
         id="path918" /><text
         xml:space="preserve"
         style="font-size:54.4546px;fill:#000000;stroke-width:1.7017"
         x="24.6007"
         y="65.622658"
         id="text992"
         transform="scale(0.73220733,1.3657334)"><tspan
           sodipodi:role="line"
           id="tspan990"
           x="24.6007"
           y="65.622658"
           style="font-style:normal;font-variant:normal;font-weight:bold;font-stretch:normal;font-family:Calibri;-inkscape-font-specification:'Calibri Bold';stroke-width:1.7017">OFS</tspan></text></g></g></svg>
