<?xml version="1.0" encoding="UTF-8" standalone="no"?>
<!-- Created with Inkscape (http://www.inkscape.org/) -->

<svg
   width="210mm"
   height="297mm"
   viewBox="0 0 210 297"
   version="1.1"
   id="svg5"
   sodipodi:docname="logo.svg"
   inkscape:version="1.2.1 (9c6d41e410, 2022-07-14)"
   xmlns:inkscape="http://www.inkscape.org/namespaces/inkscape"
   xmlns:sodipodi="http://sodipodi.sourceforge.net/DTD/sodipodi-0.dtd"
   xmlns="http://www.w3.org/2000/svg"
   xmlns:svg="http://www.w3.org/2000/svg">
  <sodipodi:namedview
     id="namedview7"
     pagecolor="#ffffff"
     bordercolor="#999999"
     borderopacity="1"
     inkscape:showpageshadow="0"
     inkscape:pageopacity="0"
     inkscape:pagecheckerboard="0"
     inkscape:deskcolor="#d1d1d1"
     inkscape:document-units="mm"
     showgrid="false"
     showguides="false"
     inkscape:zoom="5.6568543"
     inkscape:cx="51.618795"
     inkscape:cy="327.21366"
     inkscape:window-width="2560"
     inkscape:window-height="1369"
     inkscape:window-x="1432"
     inkscape:window-y="688"
     inkscape:window-maximized="1"
     inkscape:current-layer="text113">
    <sodipodi:guide
       position="27.957634,219.74407"
       orientation="0.8660254,-0.5"
       id="guide592"
       inkscape:locked="false"
       inkscape:label=""
       inkscape:color="rgb(0,134,229)" />
    <sodipodi:guide
       position="29.723712,218.89048"
       orientation="0.8660254,-0.5"
       id="guide604"
       inkscape:label=""
       inkscape:locked="false"
       inkscape:color="rgb(0,134,229)" />
    <sodipodi:guide
       position="21.14102,218.26753"
       orientation="0,-1"
       id="guide606"
       inkscape:locked="false" />
    <sodipodi:guide
       position="29.316774,217.24176"
       orientation="0,-1"
       id="guide608"
       inkscape:locked="false" />
    <sodipodi:guide
       position="24.087666,219.74407"
       orientation="0,-1"
       id="guide610"
       inkscape:locked="false" />
    <sodipodi:guide
       position="18.179813,213.93753"
       orientation="0,-1"
       id="guide612"
       inkscape:locked="false" />
    <sodipodi:guide
       position="31.805252,219.74439"
       orientation="0.8660254,-0.5"
       id="guide614"
       inkscape:label=""
       inkscape:locked="false"
       inkscape:color="rgb(0,134,229)" />
    <sodipodi:guide
       position="34.69349,221.83353"
       orientation="0.8660254,-0.5"
       id="guide622"
       inkscape:label=""
       inkscape:locked="false"
       inkscape:color="rgb(0,134,229)" />
    <sodipodi:guide
       position="38.898059,208.95421"
       orientation="0.8660254,-0.5"
       id="guide782"
       inkscape:label=""
       inkscape:locked="false"
       inkscape:color="rgb(0,134,229)" />
    <sodipodi:guide
       position="37.909314,221.46668"
       orientation="0,1"
       id="guide840"
       inkscape:label=""
       inkscape:locked="false"
       inkscape:color="rgb(0,134,229)" />
    <sodipodi:guide
       position="32.799032,215.44219"
       orientation="0,1"
       id="guide842"
       inkscape:label=""
       inkscape:locked="false"
       inkscape:color="rgb(0,134,229)" />
  </sodipodi:namedview>
  <defs
     id="defs2" />
  <g
     inkscape:label="Layer 1"
     inkscape:groupmode="layer"
     id="layer1">
    <g
       aria-label="OFS"
       id="text113"
       style="font-size:8.46667px;stroke-width:0.264583">
      <path
         id="path620"
         style="stroke-width:0.0700042"
         d="m 22.525757,75.533374 -4.345988,7.527706 17.027218,0.0014 2.499589,-4.329968 -5.071917,0 0.852144,-1.476912 5.072434,0 0.994255,-1.722376 z m 0.862479,1.722376 h 2.810682 l -2.484086,4.302062 h -2.810165 z m 4.569231,0 3.847785,-1.41e-4 -0.852661,1.476912 -0.592212,1.025777 5.121527,0 -1.038696,1.799373 -6.165349,1.41e-4 h -2.803964 l 1.039213,-1.799373 2.258713,-1.98e-4 0.592229,-1.02577 -2.25873,1.91e-4 z"
         sodipodi:nodetypes="ccccccccccccccccccccccccccc" />
      <path
         id="path620-7"
         style="font-size:8.46667px;stroke-width:0.0700042"
         d="m 23.044413,88.376668 c -2.47618,0.732331 -5.453931,5.229138 -3.816822,6.518982 1.091406,1.785938 13.674121,1.92203 15.323963,0.679395 1.649842,-1.242635 0.45891,-3.77146 -1.245794,-3.44766 -1.415546,0.268877 -1.672566,-0.126973 -1.963188,-0.766553 -0.114665,-0.252346 0.05068,-0.629132 0.281637,-0.78238 0.771552,-0.511951 1.320535,0.380912 2.773866,0.148828 1.426276,-0.227765 -0.530223,-2.515866 -6.711735,-2.83032 -2.501358,-0.127243 -3.218845,0.05883 -4.641927,0.479708 z m -0.31161,1.391647 c 0.752056,-0.43872 2.159158,-0.767085 2.6119,-0.02339 0.847946,1.392879 -0.888643,3.483747 -2.285304,4.325448 -0.802292,0.483503 -2.341788,0.811215 -2.810165,0 -0.827942,-1.433971 1.053318,-3.467709 2.483569,-4.302062 z M 27.6493,89.619487 c 0.950162,-0.409726 3.728294,-0.312174 3.071686,0.448225 -0.497648,0.576313 -1.035895,0.894359 -0.569556,1.880687 0.623794,1.319352 3.104999,0.861353 3.161957,1.791469 0.304042,1.245982 -1.695646,1.217129 -6.833009,1.165597 -2.560055,-0.02568 -0.629726,-1.845263 -0.126607,-2.518709 0.604021,-0.808508 2.541972,0.711235 2.942807,-0.711775 0.470182,-1.885468 -2.353946,0.283766 -2.689937,-0.568903 -0.221896,-0.563122 0.486868,-1.246925 1.042659,-1.486591 z"
         sodipodi:nodetypes="sczsaasssaaaaaaasscsacaa" />
    </g>
    <path
       style="fill:#000000;stroke-width:0.264583"
       d="m 27.129807,78.732469 c -18.0865381,-52.488313 -9.043269,-26.244157 0,0 z"
       id="path272"
       sodipodi:nodetypes="cc" />
  </g>
</svg>
