<svg xmlns="http://www.w3.org/2000/svg" xmlns:xlink="http://www.w3.org/1999/xlink" xmlns:serif="http://www.serif.com/" viewBox="0 0 32 40" version="1.1" xml:space="preserve" style="" x="0px" y="0px" fill-rule="evenodd" clip-rule="evenodd" stroke-linejoin="round" stroke-miterlimit="2"><g transform="matrix(1,0,0,1,-192,-96)"><path fill="currentColor" stroke="currentColor" d="M202.766,116.29L194.313,124.273C193.912,124.652 193.894,125.285 194.273,125.687C194.652,126.088 195.285,126.106 195.687,125.727L204.224,117.664C206.093,119.127 208.445,120 211,120C217.071,120 222,115.071 222,109C222,102.929 217.071,98 211,98C204.929,98 200,102.929 200,109C200,111.796 201.045,114.349 202.766,116.29ZM211,100C215.967,100 220,104.033 220,109C220,113.967 215.967,118 211,118C206.033,118 202,113.967 202,109C202,104.033 206.033,100 211,100Z"/></g></svg>
